<?xml version="1.0" encoding="UTF-8"?>
<!DOCTYPE svg PUBLIC "-//W3C//DTD SVG 1.1//EN" "http://www.w3.org/Graphics/SVG/1.1/DTD/svg11.dtd">
<!-- Creator: CorelDRAW X6 -->
<?xml-stylesheet href="Без имени-1.css" type="text/css"?>
<svg xmlns="http://www.w3.org/2000/svg" xml:space="preserve" width="266.416mm" height="266.417mm" version="1.1" style="shape-rendering:geometricPrecision; text-rendering:geometricPrecision; image-rendering:optimizeQuality; fill-rule:evenodd; clip-rule:evenodd"
viewBox="0 0 259608 259609"
 xmlns:xlink="http://www.w3.org/1999/xlink">
 <g id="Слой_x0020_1">
  <metadata id="CorelCorpID_0Corel-Layer"/>
  <g id="_146583440">
   <path class="fil0" d="M235269 165614l0 61543 -56789 0 0 -53430 -16225 16226 0 69655 -64902 0 0 -69655 -16225 -16226 0 53430 -56789 0 0 -61543 -24339 -24338 0 -52036 73014 0 8113 0 97352 0 8113 0 73015 0 0 52036 -24339 24338zm-162255 -60149l0 0 -56789 0 0 29092 24339 24338 0 52036 24338 0 0 -52036 8113 -8113 0 -45317zm97353 0l0 0 -81127 0 0 53430 24338 24338 0 60149 32451 0 0 -60149 24338 -24338 0 -53430zm73014 0l0 0 -56789 0 0 45317 8113 8113 0 52036 24338 0 0 -52036 24338 -24338 0 -29092zm-32451 -24338l0 0c-17898,0 -32451,-14554 -32451,-32451 0,-17897 14553,-32451 32451,-32451 17897,0 32451,14554 32451,32451 0,17897 -14553,32451 -32451,32451zm0 -48677l0 0c-8945,0 -16225,7281 -16225,16225 0,8944 7281,16225 16225,16225 8945,0 16225,-7281 16225,-16225 0,-8944 -7281,-16225 -16225,-16225zm-81128 48677l0 0c-22365,0 -40563,-18199 -40563,-40564 0,-22365 18199,-40564 40563,-40564 22365,0 40564,18198 40564,40564 0,22365 -18199,40564 -40564,40564zm0 -64902l0 0c-13421,0 -24338,10917 -24338,24338 0,13421 10917,24338 24338,24338 13421,0 24338,-10917 24338,-24338 0,-13421 -10917,-24338 -24338,-24338zm-81127 64902l0 0c-17898,0 -32451,-14554 -32451,-32451 0,-17897 14554,-32451 32451,-32451 17898,0 32451,14554 32451,32451 0,17897 -14553,32451 -32451,32451zm0 -48677l0 0c-8945,0 -16225,7281 -16225,16225 0,8944 7281,16225 16225,16225 8945,0 16225,-7281 16225,-16225 0,-8944 -7281,-16225 -16225,-16225z"/>
  </g>
 </g>
</svg>
